<svg width="1104" height="282" viewBox="0 0 1104 282" fill="none" xmlns="http://www.w3.org/2000/svg">
<g clip-path="url(#clip0_1399_658)">
<rect width="1104" height="282" rx="26" fill="#0F1219"/>
<path opacity="0.03" fill-rule="evenodd" clip-rule="evenodd" d="M552 529.024C766.3 529.024 940.024 355.3 940.024 141C940.024 -73.2997 766.3 -247.024 552 -247.024C337.7 -247.024 163.976 -73.2997 163.976 141C163.976 355.3 337.7 529.024 552 529.024ZM552 621C817.097 621 1032 406.097 1032 141C1032 -124.097 817.097 -339 552 -339C286.903 -339 72 -124.097 72 141C72 406.097 286.903 621 552 621Z" fill="white"/>
<circle opacity="0.3" cx="77.1576" cy="203.116" r="868.158" fill="url(#paint0_radial_1399_658)"/>
<circle opacity="0.3" cx="1026.84" cy="78.1576" r="868.158" fill="url(#paint1_radial_1399_658)"/>
<path d="M365.739 196.136L377.807 124.136H389.943L388.545 132.795H389.261C390.08 131.523 391.182 130.17 392.568 128.739C393.977 127.284 395.761 126.045 397.92 125.023C400.08 123.977 402.705 123.455 405.795 123.455C409.818 123.455 413.284 124.489 416.193 126.557C419.102 128.602 421.182 131.636 422.432 135.659C423.705 139.659 423.864 144.568 422.909 150.386C421.955 156.136 420.193 161.023 417.625 165.045C415.057 169.068 411.977 172.136 408.386 174.25C404.795 176.364 400.943 177.42 396.83 177.42C393.83 177.42 391.409 176.92 389.568 175.92C387.75 174.92 386.375 173.716 385.443 172.307C384.511 170.875 383.818 169.523 383.364 168.25H382.818L378.182 196.136H365.739ZM385.545 150.318C385 153.705 384.989 156.67 385.511 159.216C386.057 161.761 387.136 163.75 388.75 165.182C390.364 166.591 392.477 167.295 395.091 167.295C397.818 167.295 400.205 166.568 402.25 165.114C404.318 163.636 406.034 161.625 407.398 159.08C408.784 156.511 409.761 153.591 410.33 150.318C410.852 147.068 410.852 144.182 410.33 141.659C409.807 139.136 408.75 137.159 407.159 135.727C405.568 134.295 403.409 133.58 400.682 133.58C398.023 133.58 395.648 134.273 393.557 135.659C391.489 137.045 389.773 138.989 388.409 141.489C387.045 143.989 386.091 146.932 385.545 150.318ZM453.003 106.682L441.412 176.5H429.071L440.662 106.682H453.003ZM491.125 154.477L496.205 124.136H508.545L499.818 176.5H487.852L489.42 167.193H488.875C487.239 170.125 484.898 172.523 481.852 174.386C478.83 176.25 475.352 177.182 471.42 177.182C467.989 177.182 465.091 176.42 462.727 174.898C460.364 173.352 458.682 171.114 457.682 168.182C456.705 165.227 456.557 161.659 457.239 157.477L462.83 124.136H475.17L469.92 155.568C469.398 158.886 469.875 161.523 471.352 163.477C472.852 165.432 475.08 166.409 478.034 166.409C479.852 166.409 481.682 165.966 483.523 165.08C485.386 164.193 487.011 162.875 488.398 161.125C489.784 159.352 490.693 157.136 491.125 154.477ZM547.384 124.136L545.781 133.682H515.713L517.281 124.136H547.384ZM526.759 111.591H539.099L530.918 160.75C530.668 162.409 530.713 163.682 531.054 164.568C531.418 165.432 531.997 166.023 532.793 166.341C533.611 166.659 534.531 166.818 535.554 166.818C536.304 166.818 537.009 166.761 537.668 166.648C538.327 166.511 538.849 166.409 539.236 166.341L539.781 175.989C539.031 176.216 538.02 176.466 536.747 176.739C535.497 177.011 533.997 177.17 532.247 177.216C529.111 177.284 526.384 176.807 524.065 175.784C521.77 174.739 520.088 173.136 519.02 170.977C517.974 168.795 517.736 166.068 518.304 162.795L526.759 111.591ZM571.392 177.523C566.233 177.523 561.938 176.386 558.506 174.114C555.097 171.841 552.699 168.648 551.312 164.534C549.926 160.42 549.676 155.648 550.562 150.216C551.449 144.852 553.222 140.159 555.881 136.136C558.563 132.114 561.938 129 566.006 126.795C570.097 124.568 574.676 123.455 579.744 123.455C584.903 123.455 589.188 124.602 592.597 126.898C596.006 129.17 598.403 132.364 599.79 136.477C601.199 140.591 601.46 145.386 600.574 150.864C599.71 156.205 597.926 160.875 595.222 164.875C592.54 168.875 589.165 171.989 585.097 174.216C581.028 176.42 576.46 177.523 571.392 177.523ZM572.415 167.636C575.278 167.636 577.79 166.864 579.949 165.318C582.131 163.75 583.915 161.648 585.301 159.011C586.71 156.352 587.688 153.398 588.233 150.148C588.733 147.011 588.744 144.17 588.267 141.625C587.79 139.057 586.767 137.023 585.199 135.523C583.653 134 581.506 133.239 578.756 133.239C575.892 133.239 573.358 134.034 571.153 135.625C568.972 137.193 567.188 139.307 565.801 141.966C564.415 144.602 563.46 147.545 562.938 150.795C562.415 153.932 562.392 156.773 562.869 159.318C563.347 161.864 564.369 163.886 565.938 165.386C567.506 166.886 569.665 167.636 572.415 167.636Z" fill="white"/>
<path d="M612.244 129.5L616.608 103.318H621.705L617.341 129.5H612.244ZM620.222 99.2273C619.335 99.2273 618.585 98.9318 617.972 98.3409C617.369 97.7386 617.091 97.0227 617.136 96.1932C617.182 95.3523 617.534 94.6364 618.193 94.0455C618.852 93.4432 619.619 93.142 620.494 93.142C621.381 93.142 622.125 93.4432 622.727 94.0455C623.33 94.6364 623.614 95.3523 623.58 96.1932C623.534 97.0227 623.182 97.7386 622.523 98.3409C621.875 98.9318 621.108 99.2273 620.222 99.2273ZM631.868 113.955L629.311 129.5H624.214L628.578 103.318H633.47L632.754 107.58H633.078C633.908 106.182 635.038 105.068 636.47 104.239C637.913 103.398 639.618 102.977 641.584 102.977C643.357 102.977 644.845 103.352 646.05 104.102C647.266 104.841 648.124 105.943 648.624 107.409C649.135 108.875 649.214 110.687 648.862 112.847L646.067 129.5H640.97L643.646 113.46C643.953 111.562 643.703 110.08 642.896 109.011C642.101 107.932 640.834 107.392 639.095 107.392C637.913 107.392 636.817 107.648 635.805 108.159C634.805 108.67 633.959 109.42 633.266 110.409C632.584 111.386 632.118 112.568 631.868 113.955ZM662.652 130.011C660.527 130.011 658.726 129.472 657.249 128.392C655.783 127.301 654.743 125.75 654.129 123.739C653.527 121.716 653.459 119.29 653.925 116.46C654.402 113.631 655.283 111.21 656.567 109.199C657.851 107.187 659.408 105.648 661.237 104.58C663.067 103.511 665.038 102.977 667.152 102.977C668.777 102.977 670.038 103.25 670.936 103.795C671.845 104.33 672.516 104.955 672.947 105.67C673.379 106.386 673.703 107.017 673.919 107.562H674.209L676.374 94.5909H681.47L675.675 129.5H670.697L671.396 125.426H670.97C670.572 125.983 670.021 126.619 669.317 127.335C668.624 128.051 667.737 128.676 666.658 129.21C665.578 129.744 664.243 130.011 662.652 130.011ZM664.374 125.665C665.839 125.665 667.152 125.278 668.311 124.506C669.482 123.722 670.453 122.636 671.226 121.25C672.01 119.864 672.555 118.25 672.862 116.409C673.169 114.591 673.163 113 672.845 111.636C672.527 110.273 671.913 109.21 671.004 108.449C670.095 107.687 668.896 107.307 667.408 107.307C665.874 107.307 664.538 107.705 663.402 108.5C662.266 109.295 661.334 110.381 660.607 111.756C659.891 113.131 659.391 114.682 659.107 116.409C658.811 118.159 658.8 119.733 659.072 121.131C659.345 122.528 659.919 123.636 660.794 124.455C661.669 125.261 662.862 125.665 664.374 125.665ZM694.148 130.028C691.58 130.028 689.455 129.477 687.773 128.375C686.102 127.261 684.932 125.699 684.261 123.688C683.591 121.665 683.483 119.295 683.938 116.58C684.381 113.898 685.273 111.534 686.614 109.489C687.955 107.443 689.625 105.847 691.625 104.699C693.636 103.551 695.858 102.977 698.29 102.977C699.767 102.977 701.159 103.222 702.466 103.71C703.784 104.199 704.903 104.966 705.824 106.011C706.744 107.057 707.381 108.415 707.733 110.085C708.097 111.744 708.085 113.761 707.699 116.136L707.409 117.943H686.58L687.176 114.125H702.994C703.233 112.784 703.17 111.597 702.807 110.562C702.443 109.517 701.818 108.693 700.932 108.091C700.057 107.489 698.955 107.188 697.625 107.188C696.261 107.188 694.989 107.545 693.807 108.261C692.625 108.977 691.636 109.892 690.841 111.006C690.057 112.108 689.563 113.244 689.358 114.415L688.761 117.909C688.466 119.818 688.517 121.352 688.915 122.511C689.324 123.67 690.04 124.511 691.062 125.034C692.085 125.557 693.364 125.818 694.898 125.818C695.886 125.818 696.801 125.682 697.642 125.409C698.494 125.125 699.25 124.71 699.909 124.165C700.568 123.608 701.119 122.915 701.562 122.085L706.233 122.955C705.608 124.375 704.71 125.619 703.54 126.688C702.369 127.744 700.989 128.568 699.398 129.159C697.818 129.739 696.068 130.028 694.148 130.028ZM737.209 103.318L723.351 129.5H717.896L712.749 103.318H718.016L721.288 123.466H721.561L731.533 103.318H737.209Z" fill="#515A6F"/>
</g>
<defs>
<radialGradient id="paint0_radial_1399_658" cx="0" cy="0" r="1" gradientUnits="userSpaceOnUse" gradientTransform="translate(77.1576 203.116) rotate(90) scale(868.158)">
<stop stop-color="#3D00E3"/>
<stop offset="1" stop-color="#3B00E3" stop-opacity="0"/>
</radialGradient>
<radialGradient id="paint1_radial_1399_658" cx="0" cy="0" r="1" gradientUnits="userSpaceOnUse" gradientTransform="translate(1026.84 78.1576) rotate(90) scale(868.158)">
<stop stop-color="#005BE3"/>
<stop offset="0.9999" stop-color="#005BE3" stop-opacity="0"/>
<stop offset="1" stop-color="#005BE3" stop-opacity="0"/>
</radialGradient>
<clipPath id="clip0_1399_658">
<rect width="1104" height="282" rx="26" fill="white"/>
</clipPath>
</defs>
</svg>
