<svg width="inherit" height="inherit" viewBox="0 0 677 125" fill="none" xmlns="http://www.w3.org/2000/svg">
<g clip-path="url(#clip0_901_305)">
<rect width="677" height="125" fill="#0F1219"/>
<circle opacity="0.3" cx="153.378" cy="104.378" r="347.378" fill="url(#paint0_radial_901_305)"/>
<circle opacity="0.3" cx="533.378" cy="54.3781" r="347.378" fill="url(#paint1_radial_901_305)"/>
<path d="M35.527 82.8636L40.0526 55.8636H44.6037L44.0795 59.1108H44.348C44.6548 58.6335 45.0682 58.1264 45.5881 57.5895C46.1165 57.044 46.7855 56.5795 47.5952 56.196C48.4048 55.804 49.3892 55.608 50.5483 55.608C52.0568 55.608 53.3565 55.9957 54.4474 56.7713C55.5384 57.5384 56.3182 58.6761 56.7869 60.1847C57.2642 61.6847 57.3239 63.5256 56.9659 65.7074C56.608 67.8636 55.9474 69.696 54.9844 71.2045C54.0213 72.7131 52.8665 73.8636 51.5199 74.6562C50.1733 75.4489 48.7287 75.8452 47.1861 75.8452C46.0611 75.8452 45.1534 75.6577 44.4631 75.2827C43.7813 74.9077 43.2656 74.456 42.9162 73.9276C42.5668 73.3906 42.3068 72.8835 42.1364 72.4062H41.9318L40.1932 82.8636H35.527ZM42.9545 65.6818C42.75 66.9517 42.7457 68.0639 42.9418 69.0185C43.1463 69.973 43.5511 70.7187 44.1562 71.2557C44.7614 71.7841 45.554 72.0483 46.5341 72.0483C47.5568 72.0483 48.4517 71.7756 49.2188 71.2301C49.9943 70.6761 50.6378 69.9219 51.1491 68.9673C51.669 68.0043 52.0355 66.9091 52.2486 65.6818C52.4446 64.4631 52.4446 63.3807 52.2486 62.4347C52.0526 61.4886 51.6563 60.7472 51.0597 60.2102C50.4631 59.6733 49.6534 59.4048 48.6307 59.4048C47.6335 59.4048 46.7429 59.6648 45.9588 60.1847C45.1832 60.7045 44.5398 61.4332 44.0284 62.3707C43.517 63.3082 43.1591 64.4119 42.9545 65.6818ZM68.2511 49.3182L63.9045 75.5H59.2766L63.6232 49.3182H68.2511ZM82.5469 67.2415L84.4517 55.8636H89.0795L85.8068 75.5H81.3196L81.9077 72.0099H81.7031C81.0895 73.1094 80.2116 74.0085 79.0696 74.7074C77.9361 75.4062 76.6321 75.7557 75.1577 75.7557C73.8707 75.7557 72.7841 75.4702 71.8977 74.8991C71.0114 74.3196 70.3807 73.4801 70.0057 72.3807C69.6392 71.2727 69.5838 69.9347 69.8395 68.3665L71.9361 55.8636H76.5639L74.5952 67.6506C74.3991 68.8949 74.5781 69.8835 75.1321 70.6165C75.6946 71.3494 76.5298 71.7159 77.6378 71.7159C78.3196 71.7159 79.0057 71.5497 79.696 71.2173C80.3949 70.8849 81.0043 70.3906 81.5241 69.7344C82.044 69.0696 82.3849 68.2386 82.5469 67.2415ZM103.644 55.8636L103.043 59.4432H91.7674L92.3555 55.8636H103.644ZM95.9094 51.1591H100.537L97.4691 69.5938C97.3754 70.2159 97.3924 70.6932 97.5202 71.0256C97.6566 71.3494 97.8739 71.571 98.1722 71.6903C98.479 71.8097 98.8242 71.8693 99.2077 71.8693C99.489 71.8693 99.7532 71.848 100 71.8054C100.248 71.7543 100.444 71.7159 100.588 71.6903L100.793 75.3082C100.512 75.3935 100.132 75.4872 99.6552 75.5895C99.1864 75.6918 98.6239 75.7514 97.9677 75.7685C96.7915 75.794 95.7688 75.6151 94.8995 75.2315C94.0387 74.8395 93.408 74.2386 93.0075 73.429C92.6154 72.6108 92.5259 71.5881 92.739 70.3608L95.9094 51.1591ZM112.647 75.8835C110.712 75.8835 109.102 75.4574 107.815 74.6051C106.536 73.7528 105.637 72.5554 105.117 71.0128C104.597 69.4702 104.504 67.6804 104.836 65.6435C105.168 63.6321 105.833 61.8722 106.83 60.3636C107.836 58.8551 109.102 57.6875 110.627 56.8608C112.161 56.0256 113.879 55.608 115.779 55.608C117.714 55.608 119.32 56.0384 120.599 56.8991C121.877 57.7514 122.776 58.9489 123.296 60.4915C123.825 62.0341 123.923 63.8324 123.59 65.8864C123.266 67.8892 122.597 69.6406 121.583 71.1406C120.577 72.6406 119.312 73.8082 117.786 74.6435C116.261 75.4702 114.548 75.8835 112.647 75.8835ZM113.031 72.1761C114.104 72.1761 115.046 71.8864 115.856 71.3068C116.674 70.7187 117.343 69.9304 117.863 68.9418C118.391 67.9446 118.758 66.8366 118.962 65.6179C119.15 64.4418 119.154 63.3764 118.975 62.4219C118.796 61.4588 118.413 60.696 117.825 60.1335C117.245 59.5625 116.44 59.277 115.408 59.277C114.335 59.277 113.384 59.5753 112.558 60.1719C111.739 60.7599 111.07 61.5526 110.55 62.5497C110.031 63.5384 109.673 64.642 109.477 65.8608C109.281 67.0369 109.272 68.1023 109.451 69.0568C109.63 70.0114 110.013 70.7699 110.602 71.3324C111.19 71.8949 111.999 72.1761 113.031 72.1761Z" fill="white"/>
<path id="idt" d="M132.622 63.5L134.804 50.4091H137.352L135.17 63.5H132.622ZM136.611 48.3636C136.168 48.3636 135.793 48.2159 135.486 47.9205C135.185 47.6193 135.045 47.2614 135.068 46.8466C135.091 46.4261 135.267 46.0682 135.597 45.7727C135.926 45.4716 136.31 45.321 136.747 45.321C137.19 45.321 137.563 45.4716 137.864 45.7727C138.165 46.0682 138.307 46.4261 138.29 46.8466C138.267 47.2614 138.091 47.6193 137.761 47.9205C137.438 48.2159 137.054 48.3636 136.611 48.3636ZM142.434 55.7273L141.156 63.5H138.607L140.789 50.4091H143.235L142.877 52.5398H143.039C143.454 51.8409 144.019 51.2841 144.735 50.8693C145.457 50.4489 146.309 50.2386 147.292 50.2386C148.178 50.2386 148.923 50.4261 149.525 50.8011C150.133 51.1705 150.562 51.7216 150.812 52.4545C151.067 53.1875 151.107 54.0937 150.931 55.1733L149.533 63.5H146.985L148.323 55.4801C148.477 54.5312 148.352 53.7898 147.948 53.2557C147.55 52.7159 146.917 52.446 146.048 52.446C145.457 52.446 144.908 52.5739 144.403 52.8295C143.903 53.0852 143.479 53.4602 143.133 53.9545C142.792 54.4432 142.559 55.0341 142.434 55.7273ZM157.826 63.7557C156.763 63.7557 155.863 63.4858 155.124 62.946C154.391 62.4006 153.871 61.625 153.565 60.6193C153.263 59.608 153.229 58.3949 153.462 56.9801C153.701 55.5653 154.141 54.3551 154.783 53.3494C155.425 52.3437 156.204 51.5739 157.119 51.0398C158.033 50.5057 159.019 50.2386 160.076 50.2386C160.888 50.2386 161.519 50.375 161.968 50.6477C162.423 50.9148 162.758 51.2273 162.974 51.5852C163.19 51.9432 163.352 52.2585 163.46 52.5312H163.604L164.687 46.0455H167.235L164.337 63.5H161.849L162.198 61.4631H161.985C161.786 61.7415 161.511 62.0597 161.158 62.4176C160.812 62.7756 160.369 63.0881 159.829 63.3551C159.289 63.6222 158.621 63.7557 157.826 63.7557ZM158.687 61.5824C159.42 61.5824 160.076 61.3892 160.656 61.0028C161.241 60.6108 161.727 60.0682 162.113 59.375C162.505 58.6818 162.778 57.875 162.931 56.9545C163.085 56.0455 163.082 55.25 162.923 54.5682C162.763 53.8864 162.457 53.3551 162.002 52.9744C161.548 52.5937 160.948 52.4034 160.204 52.4034C159.437 52.4034 158.769 52.6023 158.201 53C157.633 53.3977 157.167 53.9403 156.803 54.6278C156.445 55.3153 156.195 56.0909 156.053 56.9545C155.906 57.8295 155.9 58.6165 156.036 59.3153C156.173 60.0142 156.46 60.5682 156.897 60.9773C157.335 61.3807 157.931 61.5824 158.687 61.5824ZM173.574 63.7642C172.29 63.7642 171.227 63.4886 170.386 62.9375C169.551 62.3807 168.966 61.5994 168.631 60.5938C168.295 59.5824 168.241 58.3977 168.469 57.0398C168.69 55.6989 169.136 54.517 169.807 53.4943C170.477 52.4716 171.312 51.6733 172.312 51.0994C173.318 50.5256 174.429 50.2386 175.645 50.2386C176.384 50.2386 177.08 50.3608 177.733 50.6051C178.392 50.8494 178.952 51.233 179.412 51.7557C179.872 52.2784 180.19 52.9574 180.366 53.7926C180.548 54.6222 180.543 55.6307 180.349 56.8182L180.205 57.7216H169.79L170.088 55.8125H177.997C178.116 55.142 178.085 54.5483 177.903 54.0312C177.722 53.5085 177.409 53.0966 176.966 52.7955C176.528 52.4943 175.977 52.3438 175.312 52.3438C174.631 52.3438 173.994 52.5227 173.403 52.8807C172.813 53.2386 172.318 53.696 171.92 54.2528C171.528 54.804 171.281 55.3722 171.179 55.9574L170.881 57.7045C170.733 58.6591 170.759 59.4261 170.957 60.0057C171.162 60.5852 171.52 61.0057 172.031 61.267C172.543 61.5284 173.182 61.6591 173.949 61.6591C174.443 61.6591 174.901 61.5909 175.321 61.4545C175.747 61.3125 176.125 61.1051 176.455 60.8324C176.784 60.554 177.06 60.2074 177.281 59.7926L179.616 60.2273C179.304 60.9375 178.855 61.5597 178.27 62.0938C177.685 62.6222 176.994 63.0341 176.199 63.3295C175.409 63.6193 174.534 63.7642 173.574 63.7642ZM195.104 50.4091L188.175 63.5H185.448L182.874 50.4091H185.508L187.144 60.483H187.281L192.266 50.4091H195.104Z" fill="#515A6F"/>
<path opacity="0.03" fill-rule="evenodd" clip-rule="evenodd" d="M551 176.156C601.896 176.156 643.156 134.896 643.156 84C643.156 33.1038 601.896 -8.15569 551 -8.15569C500.104 -8.15569 458.844 33.1038 458.844 84C458.844 134.896 500.104 176.156 551 176.156ZM551 198C613.96 198 665 146.96 665 84C665 21.0395 613.96 -30 551 -30C488.04 -30 437 21.0395 437 84C437 146.96 488.04 198 551 198Z" fill="white"/>
</g>
<defs>
<radialGradient id="paint0_radial_901_305" cx="0" cy="0" r="1" gradientUnits="userSpaceOnUse" gradientTransform="translate(153.378 104.378) rotate(90) scale(347.378)">
<stop stop-color="#3D00E3"/>
<stop offset="1" stop-color="#3B00E3" stop-opacity="0"/>
</radialGradient>
<radialGradient id="paint1_radial_901_305" cx="0" cy="0" r="1" gradientUnits="userSpaceOnUse" gradientTransform="translate(533.378 54.3781) rotate(90) scale(347.378)">
<stop stop-color="#005BE3"/>
<stop offset="0.9999" stop-color="#005BE3" stop-opacity="0"/>
<stop offset="1" stop-color="#005BE3" stop-opacity="0"/>
</radialGradient>
<clipPath id="clip0_901_305">
<rect width="677" height="125" fill="white"/>
</clipPath>
</defs>
</svg>
