<svg width="600" height="600" viewBox="0 0 600 600" fill="none" xmlns="http://www.w3.org/2000/svg">
<g clip-path="url(#clip0_22_369)">
<rect width="600" height="600" fill="#0F1219"/>
<circle opacity="0.3" cx="101" cy="361" r="364" fill="url(#paint0_radial_22_369)"/>
<ellipse opacity="0.3" cx="499" cy="308.5" rx="364" ry="363.5" fill="url(#paint1_radial_22_369)"/>
<path opacity="0.03" fill-rule="evenodd" clip-rule="evenodd" d="M300 542.515C433.937 542.515 542.515 433.937 542.515 300C542.515 166.063 433.937 57.485 300 57.485C166.063 57.485 57.485 166.063 57.485 300C57.485 433.937 166.063 542.515 300 542.515ZM300 600C465.685 600 600 465.685 600 300C600 134.315 465.685 0 300 0C134.315 0 0 134.315 0 300C0 465.685 134.315 600 300 600Z" fill="white"/>
<path d="M139.318 372.682L155.409 276.682H171.591L169.727 288.227H170.682C171.773 286.53 173.242 284.727 175.091 282.818C176.97 280.879 179.348 279.227 182.227 277.864C185.106 276.47 188.606 275.773 192.727 275.773C198.091 275.773 202.712 277.152 206.591 279.909C210.47 282.636 213.242 286.682 214.909 292.045C216.606 297.379 216.818 303.924 215.545 311.682C214.273 319.348 211.924 325.864 208.5 331.227C205.076 336.591 200.97 340.682 196.182 343.5C191.394 346.318 186.258 347.727 180.773 347.727C176.773 347.727 173.545 347.061 171.091 345.727C168.667 344.394 166.833 342.788 165.591 340.909C164.348 339 163.424 337.197 162.818 335.5H162.091L155.909 372.682H139.318ZM165.727 311.591C165 316.106 164.985 320.061 165.682 323.455C166.409 326.848 167.848 329.5 170 331.409C172.152 333.288 174.97 334.227 178.455 334.227C182.091 334.227 185.273 333.258 188 331.318C190.758 329.348 193.045 326.667 194.864 323.273C196.712 319.848 198.015 315.955 198.773 311.591C199.47 307.258 199.47 303.409 198.773 300.045C198.076 296.682 196.667 294.045 194.545 292.136C192.424 290.227 189.545 289.273 185.909 289.273C182.364 289.273 179.197 290.197 176.409 292.045C173.652 293.894 171.364 296.485 169.545 299.818C167.727 303.152 166.455 307.076 165.727 311.591ZM255.67 253.409L240.216 346.5H223.761L239.216 253.409H255.67ZM306.5 317.136L313.273 276.682H329.727L318.091 346.5H302.136L304.227 334.091H303.5C301.318 338 298.197 341.197 294.136 343.682C290.106 346.167 285.47 347.409 280.227 347.409C275.652 347.409 271.788 346.394 268.636 344.364C265.485 342.303 263.242 339.318 261.909 335.409C260.606 331.47 260.409 326.712 261.318 321.136L268.773 276.682H285.227L278.227 318.591C277.53 323.015 278.167 326.53 280.136 329.136C282.136 331.742 285.106 333.045 289.045 333.045C291.47 333.045 293.909 332.455 296.364 331.273C298.848 330.091 301.015 328.333 302.864 326C304.712 323.636 305.924 320.682 306.5 317.136ZM381.511 276.682L379.375 289.409H339.284L341.375 276.682H381.511ZM354.011 259.955H370.466L359.557 325.5C359.223 327.712 359.284 329.409 359.739 330.591C360.223 331.742 360.996 332.53 362.057 332.955C363.148 333.379 364.375 333.591 365.739 333.591C366.739 333.591 367.678 333.515 368.557 333.364C369.436 333.182 370.133 333.045 370.648 332.955L371.375 345.818C370.375 346.121 369.027 346.455 367.33 346.818C365.663 347.182 363.663 347.394 361.33 347.455C357.148 347.545 353.511 346.909 350.42 345.545C347.36 344.152 345.117 342.015 343.693 339.136C342.299 336.227 341.981 332.591 342.739 328.227L354.011 259.955ZM413.523 347.864C406.644 347.864 400.917 346.348 396.341 343.318C391.795 340.288 388.598 336.03 386.75 330.545C384.902 325.061 384.568 318.697 385.75 311.455C386.932 304.303 389.295 298.045 392.841 292.682C396.417 287.318 400.917 283.167 406.341 280.227C411.795 277.258 417.902 275.773 424.659 275.773C431.538 275.773 437.25 277.303 441.795 280.364C446.341 283.394 449.538 287.652 451.386 293.136C453.265 298.621 453.614 305.015 452.432 312.318C451.28 319.439 448.902 325.667 445.295 331C441.72 336.333 437.22 340.485 431.795 343.455C426.371 346.394 420.28 347.864 413.523 347.864ZM414.886 334.682C418.705 334.682 422.053 333.652 424.932 331.591C427.841 329.5 430.22 326.697 432.068 323.182C433.947 319.636 435.25 315.697 435.977 311.364C436.644 307.182 436.659 303.394 436.023 300C435.386 296.576 434.023 293.864 431.932 291.864C429.871 289.833 427.008 288.818 423.341 288.818C419.523 288.818 416.144 289.879 413.205 292C410.295 294.091 407.917 296.909 406.068 300.455C404.22 303.97 402.947 307.894 402.25 312.227C401.553 316.409 401.523 320.197 402.159 323.591C402.795 326.985 404.159 329.682 406.25 331.682C408.341 333.682 411.22 334.682 414.886 334.682Z" fill="white"/>
</g>
<defs>
<radialGradient id="paint0_radial_22_369" cx="0" cy="0" r="1" gradientUnits="userSpaceOnUse" gradientTransform="translate(101 361) rotate(90) scale(364)">
<stop stop-color="#3D00E3"/>
<stop offset="1" stop-color="#3B00E3" stop-opacity="0"/>
</radialGradient>
<radialGradient id="paint1_radial_22_369" cx="0" cy="0" r="1" gradientUnits="userSpaceOnUse" gradientTransform="translate(499 308.5) rotate(90) scale(363.5 364)">
<stop stop-color="#005BE3"/>
<stop offset="0.9999" stop-color="#005BE3" stop-opacity="0"/>
<stop offset="1" stop-color="#005BE3" stop-opacity="0"/>
</radialGradient>
<clipPath id="clip0_22_369">
<rect width="600" height="600" fill="white"/>
</clipPath>
</defs>
</svg>
