<svg width="1920" height="1080" viewBox="0 0 1920 1080" fill="none" xmlns="http://www.w3.org/2000/svg">
  <g clip-path="url(#clip0_1_23)">
    <rect width="1920" height="1080" fill="#151515" />
    <path opacity="0.03" fill-rule="evenodd" clip-rule="evenodd"
      d="M960 1202.07C1325.65 1202.07 1622.07 905.649 1622.07 540C1622.07 174.351 1325.65 -122.066 960 -122.066C594.351 -122.066 297.934 174.351 297.934 540C297.934 905.649 594.351 1202.07 960 1202.07ZM960 1359C1412.32 1359 1779 992.321 1779 540C1779 87.6788 1412.32 -279 960 -279C507.679 -279 141 87.6788 141 540C141 992.321 507.679 1359 960 1359Z"
      fill="white" />
    <path
      d="M773.739 595.136L785.807 523.136H797.943L796.545 531.795H797.261C798.08 530.523 799.182 529.17 800.568 527.739C801.977 526.284 803.761 525.045 805.92 524.023C808.08 522.977 810.705 522.455 813.795 522.455C817.818 522.455 821.284 523.489 824.193 525.557C827.102 527.602 829.182 530.636 830.432 534.659C831.705 538.659 831.864 543.568 830.909 549.386C829.955 555.136 828.193 560.023 825.625 564.045C823.057 568.068 819.977 571.136 816.386 573.25C812.795 575.364 808.943 576.42 804.83 576.42C801.83 576.42 799.409 575.92 797.568 574.92C795.75 573.92 794.375 572.716 793.443 571.307C792.511 569.875 791.818 568.523 791.364 567.25H790.818L786.182 595.136H773.739ZM793.545 549.318C793 552.705 792.989 555.67 793.511 558.216C794.057 560.761 795.136 562.75 796.75 564.182C798.364 565.591 800.477 566.295 803.091 566.295C805.818 566.295 808.205 565.568 810.25 564.114C812.318 562.636 814.034 560.625 815.398 558.08C816.784 555.511 817.761 552.591 818.33 549.318C818.852 546.068 818.852 543.182 818.33 540.659C817.807 538.136 816.75 536.159 815.159 534.727C813.568 533.295 811.409 532.58 808.682 532.58C806.023 532.58 803.648 533.273 801.557 534.659C799.489 536.045 797.773 537.989 796.409 540.489C795.045 542.989 794.091 545.932 793.545 549.318ZM861.003 505.682L849.412 575.5H837.071L848.662 505.682H861.003ZM899.125 553.477L904.205 523.136H916.545L907.818 575.5H895.852L897.42 566.193H896.875C895.239 569.125 892.898 571.523 889.852 573.386C886.83 575.25 883.352 576.182 879.42 576.182C875.989 576.182 873.091 575.42 870.727 573.898C868.364 572.352 866.682 570.114 865.682 567.182C864.705 564.227 864.557 560.659 865.239 556.477L870.83 523.136H883.17L877.92 554.568C877.398 557.886 877.875 560.523 879.352 562.477C880.852 564.432 883.08 565.409 886.034 565.409C887.852 565.409 889.682 564.966 891.523 564.08C893.386 563.193 895.011 561.875 896.398 560.125C897.784 558.352 898.693 556.136 899.125 553.477ZM955.384 523.136L953.781 532.682H923.713L925.281 523.136H955.384ZM934.759 510.591H947.099L938.918 559.75C938.668 561.409 938.713 562.682 939.054 563.568C939.418 564.432 939.997 565.023 940.793 565.341C941.611 565.659 942.531 565.818 943.554 565.818C944.304 565.818 945.009 565.761 945.668 565.648C946.327 565.511 946.849 565.409 947.236 565.341L947.781 574.989C947.031 575.216 946.02 575.466 944.747 575.739C943.497 576.011 941.997 576.17 940.247 576.216C937.111 576.284 934.384 575.807 932.065 574.784C929.77 573.739 928.088 572.136 927.02 569.977C925.974 567.795 925.736 565.068 926.304 561.795L934.759 510.591ZM979.392 576.523C974.233 576.523 969.938 575.386 966.506 573.114C963.097 570.841 960.699 567.648 959.312 563.534C957.926 559.42 957.676 554.648 958.562 549.216C959.449 543.852 961.222 539.159 963.881 535.136C966.563 531.114 969.938 528 974.006 525.795C978.097 523.568 982.676 522.455 987.744 522.455C992.903 522.455 997.188 523.602 1000.6 525.898C1004.01 528.17 1006.4 531.364 1007.79 535.477C1009.2 539.591 1009.46 544.386 1008.57 549.864C1007.71 555.205 1005.93 559.875 1003.22 563.875C1000.54 567.875 997.165 570.989 993.097 573.216C989.028 575.42 984.46 576.523 979.392 576.523ZM980.415 566.636C983.278 566.636 985.79 565.864 987.949 564.318C990.131 562.75 991.915 560.648 993.301 558.011C994.71 555.352 995.688 552.398 996.233 549.148C996.733 546.011 996.744 543.17 996.267 540.625C995.79 538.057 994.767 536.023 993.199 534.523C991.653 533 989.506 532.239 986.756 532.239C983.892 532.239 981.358 533.034 979.153 534.625C976.972 536.193 975.188 538.307 973.801 540.966C972.415 543.602 971.46 546.545 970.938 549.795C970.415 552.932 970.392 555.773 970.869 558.318C971.347 560.864 972.369 562.886 973.938 564.386C975.506 565.886 977.665 566.636 980.415 566.636Z"
      fill="white" />
    <path
      d="M1020.24 528.5L1024.61 502.318H1029.7L1025.34 528.5H1020.24ZM1028.22 498.227C1027.34 498.227 1026.59 497.932 1025.97 497.341C1025.37 496.739 1025.09 496.023 1025.14 495.193C1025.18 494.352 1025.53 493.636 1026.19 493.045C1026.85 492.443 1027.62 492.142 1028.49 492.142C1029.38 492.142 1030.13 492.443 1030.73 493.045C1031.33 493.636 1031.61 494.352 1031.58 495.193C1031.53 496.023 1031.18 496.739 1030.52 497.341C1029.88 497.932 1029.11 498.227 1028.22 498.227ZM1039.87 512.955L1037.31 528.5H1032.21L1036.58 502.318H1041.47L1040.75 506.58H1041.08C1041.91 505.182 1043.04 504.068 1044.47 503.239C1045.91 502.398 1047.62 501.977 1049.58 501.977C1051.36 501.977 1052.85 502.352 1054.05 503.102C1055.27 503.841 1056.12 504.943 1056.62 506.409C1057.13 507.875 1057.21 509.687 1056.86 511.847L1054.07 528.5H1048.97L1051.65 512.46C1051.95 510.562 1051.7 509.08 1050.9 508.011C1050.1 506.932 1048.83 506.392 1047.1 506.392C1045.91 506.392 1044.82 506.648 1043.81 507.159C1042.81 507.67 1041.96 508.42 1041.27 509.409C1040.58 510.386 1040.12 511.568 1039.87 512.955ZM1070.65 529.011C1068.53 529.011 1066.73 528.472 1065.25 527.392C1063.78 526.301 1062.74 524.75 1062.13 522.739C1061.53 520.716 1061.46 518.29 1061.92 515.46C1062.4 512.631 1063.28 510.21 1064.57 508.199C1065.85 506.187 1067.41 504.648 1069.24 503.58C1071.07 502.511 1073.04 501.977 1075.15 501.977C1076.78 501.977 1078.04 502.25 1078.94 502.795C1079.85 503.33 1080.52 503.955 1080.95 504.67C1081.38 505.386 1081.7 506.017 1081.92 506.562H1082.21L1084.37 493.591H1089.47L1083.67 528.5H1078.7L1079.4 524.426H1078.97C1078.57 524.983 1078.02 525.619 1077.32 526.335C1076.62 527.051 1075.74 527.676 1074.66 528.21C1073.58 528.744 1072.24 529.011 1070.65 529.011ZM1072.37 524.665C1073.84 524.665 1075.15 524.278 1076.31 523.506C1077.48 522.722 1078.45 521.636 1079.23 520.25C1080.01 518.864 1080.56 517.25 1080.86 515.409C1081.17 513.591 1081.16 512 1080.85 510.636C1080.53 509.273 1079.91 508.21 1079 507.449C1078.1 506.687 1076.9 506.307 1075.41 506.307C1073.87 506.307 1072.54 506.705 1071.4 507.5C1070.27 508.295 1069.33 509.381 1068.61 510.756C1067.89 512.131 1067.39 513.682 1067.11 515.409C1066.81 517.159 1066.8 518.733 1067.07 520.131C1067.35 521.528 1067.92 522.636 1068.79 523.455C1069.67 524.261 1070.86 524.665 1072.37 524.665ZM1102.15 529.028C1099.58 529.028 1097.45 528.477 1095.77 527.375C1094.1 526.261 1092.93 524.699 1092.26 522.688C1091.59 520.665 1091.48 518.295 1091.94 515.58C1092.38 512.898 1093.27 510.534 1094.61 508.489C1095.95 506.443 1097.62 504.847 1099.62 503.699C1101.64 502.551 1103.86 501.977 1106.29 501.977C1107.77 501.977 1109.16 502.222 1110.47 502.71C1111.78 503.199 1112.9 503.966 1113.82 505.011C1114.74 506.057 1115.38 507.415 1115.73 509.085C1116.1 510.744 1116.09 512.761 1115.7 515.136L1115.41 516.943H1094.58L1095.18 513.125H1110.99C1111.23 511.784 1111.17 510.597 1110.81 509.562C1110.44 508.517 1109.82 507.693 1108.93 507.091C1108.06 506.489 1106.95 506.188 1105.62 506.188C1104.26 506.188 1102.99 506.545 1101.81 507.261C1100.63 507.977 1099.64 508.892 1098.84 510.006C1098.06 511.108 1097.56 512.244 1097.36 513.415L1096.76 516.909C1096.47 518.818 1096.52 520.352 1096.91 521.511C1097.32 522.67 1098.04 523.511 1099.06 524.034C1100.09 524.557 1101.36 524.818 1102.9 524.818C1103.89 524.818 1104.8 524.682 1105.64 524.409C1106.49 524.125 1107.25 523.71 1107.91 523.165C1108.57 522.608 1109.12 521.915 1109.56 521.085L1114.23 521.955C1113.61 523.375 1112.71 524.619 1111.54 525.688C1110.37 526.744 1108.99 527.568 1107.4 528.159C1105.82 528.739 1104.07 529.028 1102.15 529.028ZM1145.21 502.318L1131.35 528.5H1125.9L1120.75 502.318H1126.02L1129.29 522.466H1129.56L1139.53 502.318H1145.21Z"
      fill="#ACD3A6" />
  </g>
  <defs>
    <clipPath id="clip0_1_23">
      <rect width="1920" height="1080" fill="white" />
    </clipPath>
  </defs>
</svg>